<?xml version="1.0" standalone="no"?>
<!DOCTYPE svg PUBLIC "-//W3C//DTD SVG 20010904//EN"
 "http://www.w3.org/TR/2001/REC-SVG-20010904/DTD/svg10.dtd">
<svg version="1.0" xmlns="http://www.w3.org/2000/svg"
 width="1024.000000pt" height="1024.000000pt" viewBox="0 0 1024.000000 1024.000000"
 preserveAspectRatio="xMidYMid meet">

<g transform="translate(0.000000,1024.000000) scale(0.100000,-0.100000)"
fill="#000000" stroke="none">
<path d="M5080 8617 c-3 -3 -52 -7 -110 -10 -223 -12 -509 -95 -720 -208 -325
-175 -577 -438 -741 -776 -28 -57 -55 -103 -60 -103 -6 0 -57 10 -112 22 -83
17 -137 22 -287 22 -168 1 -197 -2 -315 -28 -384 -84 -718 -300 -956 -618
-152 -204 -237 -392 -301 -662 -30 -126 -33 -486 -5 -616 72 -336 244 -659
476 -890 260 -260 578 -411 986 -470 l80 -12 -3 -789 c-1 -434 0 -789 3 -789
3 0 24 12 48 27 102 65 297 141 542 212 40 12 82 32 99 47 57 54 56 43 56 672
l0 578 -22 44 c-49 94 -170 108 -245 28 -53 -56 -53 -59 -53 -592 0 -485 0
-496 -20 -506 -20 -11 -20 -8 -20 620 l0 631 36 15 c57 24 385 100 554 128
171 29 481 66 548 66 116 0 175 81 122 167 -30 49 -53 57 -165 54 l-100 -2
-19 32 c-30 51 -209 272 -335 413 -132 147 -450 460 -554 544 -57 46 -76 56
-115 59 -59 5 -101 -19 -126 -72 -28 -58 -15 -93 68 -193 40 -48 163 -196 273
-328 202 -243 413 -507 413 -518 0 -3 -15 -6 -32 -6 -18 0 -85 -9 -148 -20
l-115 -21 -150 149 c-186 184 -236 227 -466 399 -204 153 -250 179 -301 169
-83 -15 -142 -107 -118 -182 13 -40 33 -61 190 -204 63 -58 186 -172 273 -255
l160 -150 -114 -3 c-282 -8 -521 60 -754 216 -181 121 -325 284 -420 477 -108
221 -149 434 -126 665 30 304 145 546 360 760 153 153 291 236 485 295 167 50
387 58 548 20 114 -26 114 -26 127 -96 17 -82 72 -237 106 -295 42 -72 93
-123 135 -135 32 -10 44 -9 76 7 21 11 47 31 58 46 19 27 19 29 1 143 -34 219
4 435 116 663 137 276 358 496 624 617 461 210 962 171 1390 -106 102 -66 293
-258 363 -364 144 -218 210 -432 198 -642 -6 -109 -5 -112 19 -141 32 -38 76
-56 118 -48 70 13 167 126 224 261 28 65 32 70 72 82 75 21 243 36 346 30 126
-8 239 -31 333 -68 352 -140 579 -369 716 -724 188 -489 3 -1088 -437 -1416
-224 -168 -431 -235 -747 -245 l-175 -6 30 29 c17 17 138 127 270 245 293 263
341 313 351 363 10 55 -23 118 -75 145 -77 39 -99 30 -313 -123 -230 -164
-369 -284 -575 -495 -73 -75 -85 -84 -110 -79 -15 3 -82 13 -148 22 -66 10
-121 19 -123 20 -3 3 24 38 216 280 87 109 307 374 460 555 85 99 103 141 83
190 -31 81 -134 116 -197 68 -134 -103 -537 -502 -661 -655 -21 -26 -72 -89
-113 -139 -41 -51 -101 -126 -133 -168 -32 -42 -61 -74 -65 -72 -4 2 -58 6
-120 7 l-112 4 0 567 c0 375 -4 576 -11 595 -15 40 -67 91 -106 104 -70 23
-161 -19 -189 -87 -11 -27 -14 -146 -14 -654 0 -683 -1 -666 61 -711 31 -22
47 -24 199 -31 427 -17 914 -92 1205 -185 l90 -29 3 -628 c2 -571 1 -628 -14
-622 -8 3 -18 6 -20 6 -2 0 -4 219 -4 488 0 304 -4 501 -10 524 -13 44 -52 93
-91 113 -69 36 -167 3 -200 -68 -18 -40 -19 -73 -19 -620 0 -556 1 -579 20
-616 29 -58 59 -76 203 -122 178 -57 343 -121 436 -169 42 -22 79 -40 81 -40
3 0 4 312 3 692 -2 381 0 736 5 788 l7 95 86 12 c257 37 496 124 723 265 117
73 270 210 361 323 22 28 43 52 46 55 18 14 127 198 168 285 269 562 209 1204
-159 1698 -373 501 -978 742 -1574 627 -59 -12 -109 -20 -110 -18 -1 2 -17 37
-36 78 -90 194 -188 336 -330 480 -108 109 -143 139 -258 217 -227 155 -541
273 -800 303 -113 12 -267 22 -272 17z"/>
<path d="M4430 7801 c-56 -30 -169 -139 -230 -222 -135 -182 -239 -469 -215
-595 15 -81 100 -118 172 -74 33 20 36 27 68 164 43 187 117 314 280 485 107
112 107 113 102 153 -11 85 -101 130 -177 89z"/>
<path d="M2231 6494 c-67 -56 -120 -218 -128 -390 -8 -171 14 -272 75 -336 55
-60 173 -23 188 58 3 19 -1 63 -10 101 -35 151 -28 260 25 383 43 102 37 159
-21 193 -42 25 -93 22 -129 -9z"/>
<path d="M4070 4402 c-22 -12 -44 -35 -57 -62 l-23 -44 0 -563 c0 -493 2 -568
16 -603 41 -101 189 -112 256 -18 l23 33 3 580 c2 421 -1 587 -9 607 -6 16
-27 42 -46 58 -27 24 -43 30 -81 30 -26 0 -63 -8 -82 -18z"/>
<path d="M4545 2824 c-154 -12 -516 -54 -595 -68 -14 -3 -68 -12 -120 -21
-213 -36 -477 -110 -607 -170 -189 -87 -263 -243 -187 -392 102 -200 537 -352
1284 -448 290 -38 822 -54 1150 -36 556 32 1074 124 1397 250 170 67 269 131
320 207 33 50 38 65 41 130 5 85 -13 132 -76 197 -140 145 -600 270 -1222 331
-85 8 -182 18 -215 21 -139 14 -989 14 -1170 -1z m985 -394 c424 -25 635 -48
922 -100 189 -35 230 -45 208 -53 -32 -13 -222 -57 -370 -86 -166 -33 -389
-63 -590 -80 -69 -6 -148 -13 -176 -16 -63 -6 -768 -6 -844 0 -351 28 -686 78
-948 142 -84 20 -149 40 -145 44 12 10 171 45 313 68 268 43 331 50 795 80
180 12 637 13 835 1z"/>
</g>
</svg>
